<?xml version="1.0" standalone="no"?>
<!DOCTYPE svg PUBLIC "-//W3C//DTD SVG 20010904//EN"
 "http://www.w3.org/TR/2001/REC-SVG-20010904/DTD/svg10.dtd">
<svg version="1.0" xmlns="http://www.w3.org/2000/svg"
 width="88.000000pt" height="88.000000pt" viewBox="0 0 88.000000 88.000000"
 preserveAspectRatio="xMidYMid meet">
<metadata>
Created by potrace 1.14, written by Peter Selinger 2001-2017
</metadata>
<g transform="translate(0.000000,88.000000) scale(0.100000,-0.100000)"
fill="#000000" stroke="none">
<path d="M304 790 c-15 -16 -33 -30 -39 -30 -6 0 -30 -16 -52 -35 -43 -37 -57
-77 -42 -124 4 -14 20 -65 34 -114 14 -48 28 -87 30 -87 3 0 2 36 -2 80 -7 93
5 116 66 125 20 3 68 13 106 21 105 23 125 12 165 -88 31 -81 54 -74 44 14 -3
23 -6 64 -8 89 -2 38 -9 52 -37 77 -19 18 -41 34 -50 37 -11 4 -15 13 -12 26
5 18 3 20 -15 15 -12 -4 -29 -3 -39 2 -10 5 -41 12 -70 16 -49 6 -54 5 -79
-24z"/>
<path d="M450 544 l-25 -15 25 8 c14 4 37 7 52 7 15 -1 25 3 22 7 -8 14 -46
10 -74 -7z"/>
<path d="M291 469 c-24 -11 -42 -22 -39 -24 6 -6 69 14 82 26 19 17 0 16 -43
-2z"/>
<path d="M455 470 c-10 -11 -15 -23 -12 -27 4 -3 7 0 8 8 0 8 4 4 9 -8 8 -19
13 -21 32 -14 14 5 23 17 22 29 0 14 5 18 15 15 14 -4 14 -4 1 6 -23 17 -55
13 -75 -9z"/>
<path d="M590 392 c0 -48 -27 -122 -60 -166 l-31 -41 34 38 c52 56 93 176 67
192 -6 4 -10 -6 -10 -23z"/>
<path d="M247 331 c33 -63 112 -152 136 -150 7 0 1 8 -13 17 -59 40 -120 126
-120 170 0 11 -8 22 -18 24 -15 4 -13 -5 15 -61z"/>
<path d="M379 348 c15 -20 46 -24 57 -7 4 8 -1 9 -15 4 -13 -4 -29 -1 -39 7
-15 12 -16 11 -3 -4z"/>
<path d="M485 325 c-16 -8 -46 -15 -65 -15 -19 -1 -44 -5 -54 -9 -18 -7 -17
-9 10 -35 16 -16 23 -25 15 -21 -7 4 -3 -7 10 -24 19 -27 21 -34 9 -41 -11 -7
-8 -10 13 -16 16 -3 31 -4 34 0 4 3 -5 6 -18 7 l-24 1 25 7 c19 5 27 17 35 47
6 23 15 47 21 55 9 11 27 61 21 58 -1 0 -15 -7 -32 -14z m-20 -104 c-7 -35
-29 -41 -45 -12 -16 31 -12 49 13 53 31 6 40 -5 32 -41z"/>
</g>
</svg>
